<?xml version="1.0" standalone="no"?>
<svg xmlns:xlink="http://www.w3.org/1999/xlink" id="wave" style="transform:rotate(0deg); transition: 0.3s" viewBox="0 0 1440 490" version="1.1" xmlns="http://www.w3.org/2000/svg"><defs><linearGradient id="sw-gradient-0" x1="0" x2="0" y1="1" y2="0"><stop stop-color="rgba(243, 106, 62, 1)" offset="0%"/><stop stop-color="rgba(255, 179, 11, 1)" offset="100%"/></linearGradient></defs><path style="transform:translate(0, 0px); opacity:1" fill="url(#sw-gradient-0)" d="M0,98L60,130.7C120,163,240,229,360,228.7C480,229,600,163,720,138.8C840,114,960,131,1080,171.5C1200,212,1320,278,1440,269.5C1560,261,1680,180,1800,147C1920,114,2040,131,2160,138.8C2280,147,2400,147,2520,163.3C2640,180,2760,212,2880,196C3000,180,3120,114,3240,98C3360,82,3480,114,3600,147C3720,180,3840,212,3960,187.8C4080,163,4200,82,4320,114.3C4440,147,4560,294,4680,302.2C4800,310,4920,180,5040,171.5C5160,163,5280,278,5400,285.8C5520,294,5640,196,5760,147C5880,98,6000,98,6120,138.8C6240,180,6360,261,6480,310.3C6600,359,6720,376,6840,383.8C6960,392,7080,392,7200,375.7C7320,359,7440,327,7560,294C7680,261,7800,229,7920,228.7C8040,229,8160,261,8280,253.2C8400,245,8520,196,8580,171.5L8640,147L8640,490L8580,490C8520,490,8400,490,8280,490C8160,490,8040,490,7920,490C7800,490,7680,490,7560,490C7440,490,7320,490,7200,490C7080,490,6960,490,6840,490C6720,490,6600,490,6480,490C6360,490,6240,490,6120,490C6000,490,5880,490,5760,490C5640,490,5520,490,5400,490C5280,490,5160,490,5040,490C4920,490,4800,490,4680,490C4560,490,4440,490,4320,490C4200,490,4080,490,3960,490C3840,490,3720,490,3600,490C3480,490,3360,490,3240,490C3120,490,3000,490,2880,490C2760,490,2640,490,2520,490C2400,490,2280,490,2160,490C2040,490,1920,490,1800,490C1680,490,1560,490,1440,490C1320,490,1200,490,1080,490C960,490,840,490,720,490C600,490,480,490,360,490C240,490,120,490,60,490L0,490Z"/><defs><linearGradient id="sw-gradient-1" x1="0" x2="0" y1="1" y2="0"><stop stop-color="rgba(243, 106, 62, 1)" offset="0%"/><stop stop-color="rgba(255, 179, 11, 1)" offset="100%"/></linearGradient></defs><path style="transform:translate(0, 50px); opacity:0.9" fill="url(#sw-gradient-1)" d="M0,441L60,375.7C120,310,240,180,360,147C480,114,600,180,720,236.8C840,294,960,343,1080,351.2C1200,359,1320,327,1440,277.7C1560,229,1680,163,1800,163.3C1920,163,2040,229,2160,212.3C2280,196,2400,98,2520,49C2640,0,2760,0,2880,73.5C3000,147,3120,294,3240,367.5C3360,441,3480,441,3600,367.5C3720,294,3840,147,3960,138.8C4080,131,4200,261,4320,277.7C4440,294,4560,196,4680,147C4800,98,4920,98,5040,89.8C5160,82,5280,65,5400,49C5520,33,5640,16,5760,24.5C5880,33,6000,65,6120,138.8C6240,212,6360,327,6480,326.7C6600,327,6720,212,6840,171.5C6960,131,7080,163,7200,220.5C7320,278,7440,359,7560,383.8C7680,408,7800,376,7920,343C8040,310,8160,278,8280,269.5C8400,261,8520,278,8580,285.8L8640,294L8640,490L8580,490C8520,490,8400,490,8280,490C8160,490,8040,490,7920,490C7800,490,7680,490,7560,490C7440,490,7320,490,7200,490C7080,490,6960,490,6840,490C6720,490,6600,490,6480,490C6360,490,6240,490,6120,490C6000,490,5880,490,5760,490C5640,490,5520,490,5400,490C5280,490,5160,490,5040,490C4920,490,4800,490,4680,490C4560,490,4440,490,4320,490C4200,490,4080,490,3960,490C3840,490,3720,490,3600,490C3480,490,3360,490,3240,490C3120,490,3000,490,2880,490C2760,490,2640,490,2520,490C2400,490,2280,490,2160,490C2040,490,1920,490,1800,490C1680,490,1560,490,1440,490C1320,490,1200,490,1080,490C960,490,840,490,720,490C600,490,480,490,360,490C240,490,120,490,60,490L0,490Z"/></svg>